<?xml version="1.0" encoding="UTF-8" standalone="no"?>
<!DOCTYPE svg PUBLIC "-//W3C//DTD SVG 1.1//EN"
 "http://www.w3.org/Graphics/SVG/1.1/DTD/svg11.dtd">
<!-- Generated by graphviz version 2.38.0 (20140413.2041)
 -->
<!-- Title: Tree Pages: 1 -->
<svg width="1181pt" height="477pt"
 viewBox="0.00 0.00 1181.00 477.00" xmlns="http://www.w3.org/2000/svg" xmlns:xlink="http://www.w3.org/1999/xlink">
<g id="graph0" class="graph" transform="scale(1 1) rotate(0) translate(4 473)">
<title>Tree</title>
<polygon fill="white" stroke="none" points="-4,4 -4,-473 1177,-473 1177,4 -4,4"/>
<!-- 0 -->
<g id="node1" class="node"><title>0</title>
<polygon fill="#399de5" fill-opacity="0.411765" stroke="black" points="416,-469 256,-469 256,-401 416,-401 416,-469"/>
<text text-anchor="middle" x="336" y="-453.8" font-family="Times New Roman,serif" font-size="14.00">V10 &lt;= &#45;2.178</text>
<text text-anchor="middle" x="336" y="-438.8" font-family="Times New Roman,serif" font-size="14.00">samples = 873</text>
<text text-anchor="middle" x="336" y="-423.8" font-family="Times New Roman,serif" font-size="14.00">value = [99, 31, 502, 241]</text>
<text text-anchor="middle" x="336" y="-408.8" font-family="Times New Roman,serif" font-size="14.00">class = 2</text>
</g>
<!-- 1 -->
<g id="node2" class="node"><title>1</title>
<polygon fill="#d739e5" fill-opacity="0.184314" stroke="black" points="296,-365 150,-365 150,-297 296,-297 296,-365"/>
<text text-anchor="middle" x="223" y="-349.8" font-family="Times New Roman,serif" font-size="14.00">V17 &lt;= &#45;11.209</text>
<text text-anchor="middle" x="223" y="-334.8" font-family="Times New Roman,serif" font-size="14.00">samples = 255</text>
<text text-anchor="middle" x="223" y="-319.8" font-family="Times New Roman,serif" font-size="14.00">value = [99, 27, 1, 128]</text>
<text text-anchor="middle" x="223" y="-304.8" font-family="Times New Roman,serif" font-size="14.00">class = 3</text>
</g>
<!-- 0&#45;&gt;1 -->
<g id="edge1" class="edge"><title>0&#45;&gt;1</title>
<path fill="none" stroke="black" d="M299.312,-400.884C289.148,-391.709 278.005,-381.65 267.45,-372.123"/>
<polygon fill="black" stroke="black" points="269.659,-369.402 259.89,-365.299 264.968,-374.598 269.659,-369.402"/>
<text text-anchor="middle" x="261.168" y="-386.567" font-family="Times New Roman,serif" font-size="14.00">True</text>
</g>
<!-- 8 -->
<g id="node9" class="node"><title>8</title>
<polygon fill="#399de5" fill-opacity="0.768627" stroke="black" points="522,-365 376,-365 376,-297 522,-297 522,-365"/>
<text text-anchor="middle" x="449" y="-349.8" font-family="Times New Roman,serif" font-size="14.00">V1 &lt;= &#45;2.793</text>
<text text-anchor="middle" x="449" y="-334.8" font-family="Times New Roman,serif" font-size="14.00">samples = 618</text>
<text text-anchor="middle" x="449" y="-319.8" font-family="Times New Roman,serif" font-size="14.00">value = [0, 4, 501, 113]</text>
<text text-anchor="middle" x="449" y="-304.8" font-family="Times New Roman,serif" font-size="14.00">class = 2</text>
</g>
<!-- 0&#45;&gt;8 -->
<g id="edge8" class="edge"><title>0&#45;&gt;8</title>
<path fill="none" stroke="black" d="M372.688,-400.884C382.852,-391.709 393.995,-381.65 404.55,-372.123"/>
<polygon fill="black" stroke="black" points="407.032,-374.598 412.11,-365.299 402.341,-369.402 407.032,-374.598"/>
<text text-anchor="middle" x="410.832" y="-386.567" font-family="Times New Roman,serif" font-size="14.00">False</text>
</g>
<!-- 2 -->
<g id="node3" class="node"><title>2</title>
<polygon fill="#e58139" stroke="black" points="135,-253.5 9,-253.5 9,-200.5 135,-200.5 135,-253.5"/>
<text text-anchor="middle" x="72" y="-238.3" font-family="Times New Roman,serif" font-size="14.00">samples = 90</text>
<text text-anchor="middle" x="72" y="-223.3" font-family="Times New Roman,serif" font-size="14.00">value = [90, 0, 0, 0]</text>
<text text-anchor="middle" x="72" y="-208.3" font-family="Times New Roman,serif" font-size="14.00">class = 0</text>
</g>
<!-- 1&#45;&gt;2 -->
<g id="edge2" class="edge"><title>1&#45;&gt;2</title>
<path fill="none" stroke="black" d="M173.975,-296.884C156.065,-284.786 135.88,-271.151 118.223,-259.224"/>
<polygon fill="black" stroke="black" points="120.025,-256.217 109.78,-253.52 116.107,-262.018 120.025,-256.217"/>
</g>
<!-- 3 -->
<g id="node4" class="node"><title>3</title>
<polygon fill="#d739e5" fill-opacity="0.733333" stroke="black" points="293,-261 153,-261 153,-193 293,-193 293,-261"/>
<text text-anchor="middle" x="223" y="-245.8" font-family="Times New Roman,serif" font-size="14.00">V12 &lt;= &#45;10.033</text>
<text text-anchor="middle" x="223" y="-230.8" font-family="Times New Roman,serif" font-size="14.00">samples = 165</text>
<text text-anchor="middle" x="223" y="-215.8" font-family="Times New Roman,serif" font-size="14.00">value = [9, 27, 1, 128]</text>
<text text-anchor="middle" x="223" y="-200.8" font-family="Times New Roman,serif" font-size="14.00">class = 3</text>
</g>
<!-- 1&#45;&gt;3 -->
<g id="edge3" class="edge"><title>1&#45;&gt;3</title>
<path fill="none" stroke="black" d="M223,-296.884C223,-288.778 223,-279.982 223,-271.472"/>
<polygon fill="black" stroke="black" points="226.5,-271.299 223,-261.299 219.5,-271.299 226.5,-271.299"/>
</g>
<!-- 4 -->
<g id="node5" class="node"><title>4</title>
<polygon fill="#e58139" stroke="black" points="134.5,-149.5 15.5,-149.5 15.5,-96.5 134.5,-96.5 134.5,-149.5"/>
<text text-anchor="middle" x="75" y="-134.3" font-family="Times New Roman,serif" font-size="14.00">samples = 8</text>
<text text-anchor="middle" x="75" y="-119.3" font-family="Times New Roman,serif" font-size="14.00">value = [8, 0, 0, 0]</text>
<text text-anchor="middle" x="75" y="-104.3" font-family="Times New Roman,serif" font-size="14.00">class = 0</text>
</g>
<!-- 3&#45;&gt;4 -->
<g id="edge4" class="edge"><title>3&#45;&gt;4</title>
<path fill="none" stroke="black" d="M174.949,-192.884C157.395,-180.786 137.611,-167.151 120.305,-155.224"/>
<polygon fill="black" stroke="black" points="122.249,-152.313 112.029,-149.52 118.277,-158.077 122.249,-152.313"/>
</g>
<!-- 5 -->
<g id="node6" class="node"><title>5</title>
<polygon fill="#d739e5" fill-opacity="0.776471" stroke="black" points="293,-157 153,-157 153,-89 293,-89 293,-157"/>
<text text-anchor="middle" x="223" y="-141.8" font-family="Times New Roman,serif" font-size="14.00">V3 &lt;= &#45;2.318</text>
<text text-anchor="middle" x="223" y="-126.8" font-family="Times New Roman,serif" font-size="14.00">samples = 157</text>
<text text-anchor="middle" x="223" y="-111.8" font-family="Times New Roman,serif" font-size="14.00">value = [1, 27, 1, 128]</text>
<text text-anchor="middle" x="223" y="-96.8" font-family="Times New Roman,serif" font-size="14.00">class = 3</text>
</g>
<!-- 3&#45;&gt;5 -->
<g id="edge5" class="edge"><title>3&#45;&gt;5</title>
<path fill="none" stroke="black" d="M223,-192.884C223,-184.778 223,-175.982 223,-167.472"/>
<polygon fill="black" stroke="black" points="226.5,-167.299 223,-157.299 219.5,-167.299 226.5,-167.299"/>
</g>
<!-- 6 -->
<g id="node7" class="node"><title>6</title>
<polygon fill="#d739e5" fill-opacity="0.898039" stroke="black" points="140,-53 0,-53 0,-0 140,-0 140,-53"/>
<text text-anchor="middle" x="70" y="-37.8" font-family="Times New Roman,serif" font-size="14.00">samples = 128</text>
<text text-anchor="middle" x="70" y="-22.8" font-family="Times New Roman,serif" font-size="14.00">value = [1, 11, 0, 116]</text>
<text text-anchor="middle" x="70" y="-7.8" font-family="Times New Roman,serif" font-size="14.00">class = 3</text>
</g>
<!-- 5&#45;&gt;6 -->
<g id="edge6" class="edge"><title>5&#45;&gt;6</title>
<path fill="none" stroke="black" d="M169.488,-88.9485C153.492,-79.0686 136.018,-68.2758 120.24,-58.5305"/>
<polygon fill="black" stroke="black" points="122.016,-55.5139 111.669,-53.2367 118.338,-61.4695 122.016,-55.5139"/>
</g>
<!-- 7 -->
<g id="node8" class="node"><title>7</title>
<polygon fill="#47e539" fill-opacity="0.235294" stroke="black" points="291.5,-53 158.5,-53 158.5,-0 291.5,-0 291.5,-53"/>
<text text-anchor="middle" x="225" y="-37.8" font-family="Times New Roman,serif" font-size="14.00">samples = 29</text>
<text text-anchor="middle" x="225" y="-22.8" font-family="Times New Roman,serif" font-size="14.00">value = [0, 16, 1, 12]</text>
<text text-anchor="middle" x="225" y="-7.8" font-family="Times New Roman,serif" font-size="14.00">class = 1</text>
</g>
<!-- 5&#45;&gt;7 -->
<g id="edge7" class="edge"><title>5&#45;&gt;7</title>
<path fill="none" stroke="black" d="M223.7,-88.9485C223.874,-80.7153 224.061,-71.848 224.238,-63.4814"/>
<polygon fill="black" stroke="black" points="227.743,-63.3086 224.455,-53.2367 220.744,-63.1604 227.743,-63.3086"/>
</g>
<!-- 9 -->
<g id="node10" class="node"><title>9</title>
<polygon fill="#d739e5" fill-opacity="0.905882" stroke="black" points="512,-261 386,-261 386,-193 512,-193 512,-261"/>
<text text-anchor="middle" x="449" y="-245.8" font-family="Times New Roman,serif" font-size="14.00">V11 &lt;= &#45;1.528</text>
<text text-anchor="middle" x="449" y="-230.8" font-family="Times New Roman,serif" font-size="14.00">samples = 35</text>
<text text-anchor="middle" x="449" y="-215.8" font-family="Times New Roman,serif" font-size="14.00">value = [0, 0, 3, 32]</text>
<text text-anchor="middle" x="449" y="-200.8" font-family="Times New Roman,serif" font-size="14.00">class = 3</text>
</g>
<!-- 8&#45;&gt;9 -->
<g id="edge9" class="edge"><title>8&#45;&gt;9</title>
<path fill="none" stroke="black" d="M449,-296.884C449,-288.778 449,-279.982 449,-271.472"/>
<polygon fill="black" stroke="black" points="452.5,-271.299 449,-261.299 445.5,-271.299 452.5,-271.299"/>
</g>
<!-- 14 -->
<g id="node15" class="node"><title>14</title>
<polygon fill="#399de5" fill-opacity="0.831373" stroke="black" points="805,-261 665,-261 665,-193 805,-193 805,-261"/>
<text text-anchor="middle" x="735" y="-245.8" font-family="Times New Roman,serif" font-size="14.00">V6 &lt;= 1.074</text>
<text text-anchor="middle" x="735" y="-230.8" font-family="Times New Roman,serif" font-size="14.00">samples = 583</text>
<text text-anchor="middle" x="735" y="-215.8" font-family="Times New Roman,serif" font-size="14.00">value = [0, 4, 498, 81]</text>
<text text-anchor="middle" x="735" y="-200.8" font-family="Times New Roman,serif" font-size="14.00">class = 2</text>
</g>
<!-- 8&#45;&gt;14 -->
<g id="edge14" class="edge"><title>8&#45;&gt;14</title>
<path fill="none" stroke="black" d="M522.281,-303.865C562.97,-289.353 613.629,-271.286 655.303,-256.424"/>
<polygon fill="black" stroke="black" points="656.625,-259.668 664.868,-253.012 654.274,-253.075 656.625,-259.668"/>
</g>
<!-- 10 -->
<g id="node11" class="node"><title>10</title>
<polygon fill="#399de5" stroke="black" points="430.5,-149.5 311.5,-149.5 311.5,-96.5 430.5,-96.5 430.5,-149.5"/>
<text text-anchor="middle" x="371" y="-134.3" font-family="Times New Roman,serif" font-size="14.00">samples = 1</text>
<text text-anchor="middle" x="371" y="-119.3" font-family="Times New Roman,serif" font-size="14.00">value = [0, 0, 1, 0]</text>
<text text-anchor="middle" x="371" y="-104.3" font-family="Times New Roman,serif" font-size="14.00">class = 2</text>
</g>
<!-- 9&#45;&gt;10 -->
<g id="edge10" class="edge"><title>9&#45;&gt;10</title>
<path fill="none" stroke="black" d="M423.676,-192.884C415.013,-181.556 405.32,-168.88 396.633,-157.521"/>
<polygon fill="black" stroke="black" points="399.37,-155.337 390.515,-149.52 393.81,-159.59 399.37,-155.337"/>
</g>
<!-- 11 -->
<g id="node12" class="node"><title>11</title>
<polygon fill="#d739e5" fill-opacity="0.937255" stroke="black" points="575,-157 449,-157 449,-89 575,-89 575,-157"/>
<text text-anchor="middle" x="512" y="-141.8" font-family="Times New Roman,serif" font-size="14.00">V28 &lt;= &#45;1.003</text>
<text text-anchor="middle" x="512" y="-126.8" font-family="Times New Roman,serif" font-size="14.00">samples = 34</text>
<text text-anchor="middle" x="512" y="-111.8" font-family="Times New Roman,serif" font-size="14.00">value = [0, 0, 2, 32]</text>
<text text-anchor="middle" x="512" y="-96.8" font-family="Times New Roman,serif" font-size="14.00">class = 3</text>
</g>
<!-- 9&#45;&gt;11 -->
<g id="edge11" class="edge"><title>9&#45;&gt;11</title>
<path fill="none" stroke="black" d="M469.454,-192.884C474.736,-184.332 480.492,-175.013 486.014,-166.072"/>
<polygon fill="black" stroke="black" points="489.156,-167.647 491.433,-157.299 483.2,-163.968 489.156,-167.647"/>
</g>
<!-- 12 -->
<g id="node13" class="node"><title>12</title>
<polygon fill="none" stroke="black" points="430.5,-53 311.5,-53 311.5,-0 430.5,-0 430.5,-53"/>
<text text-anchor="middle" x="371" y="-37.8" font-family="Times New Roman,serif" font-size="14.00">samples = 2</text>
<text text-anchor="middle" x="371" y="-22.8" font-family="Times New Roman,serif" font-size="14.00">value = [0, 0, 1, 1]</text>
<text text-anchor="middle" x="371" y="-7.8" font-family="Times New Roman,serif" font-size="14.00">class = 2</text>
</g>
<!-- 11&#45;&gt;12 -->
<g id="edge12" class="edge"><title>11&#45;&gt;12</title>
<path fill="none" stroke="black" d="M462.685,-88.9485C448.217,-79.2516 432.436,-68.6752 418.109,-59.073"/>
<polygon fill="black" stroke="black" points="419.656,-55.8967 409.401,-53.2367 415.759,-61.7115 419.656,-55.8967"/>
</g>
<!-- 13 -->
<g id="node14" class="node"><title>13</title>
<polygon fill="#d739e5" fill-opacity="0.968627" stroke="black" points="575,-53 449,-53 449,-0 575,-0 575,-53"/>
<text text-anchor="middle" x="512" y="-37.8" font-family="Times New Roman,serif" font-size="14.00">samples = 32</text>
<text text-anchor="middle" x="512" y="-22.8" font-family="Times New Roman,serif" font-size="14.00">value = [0, 0, 1, 31]</text>
<text text-anchor="middle" x="512" y="-7.8" font-family="Times New Roman,serif" font-size="14.00">class = 3</text>
</g>
<!-- 11&#45;&gt;13 -->
<g id="edge13" class="edge"><title>11&#45;&gt;13</title>
<path fill="none" stroke="black" d="M512,-88.9485C512,-80.7153 512,-71.848 512,-63.4814"/>
<polygon fill="black" stroke="black" points="515.5,-63.2367 512,-53.2367 508.5,-63.2367 515.5,-63.2367"/>
</g>
<!-- 15 -->
<g id="node16" class="node"><title>15</title>
<polygon fill="#399de5" fill-opacity="0.905882" stroke="black" points="805,-157 665,-157 665,-89 805,-89 805,-157"/>
<text text-anchor="middle" x="735" y="-141.8" font-family="Times New Roman,serif" font-size="14.00">V20 &lt;= 0.929</text>
<text text-anchor="middle" x="735" y="-126.8" font-family="Times New Roman,serif" font-size="14.00">samples = 516</text>
<text text-anchor="middle" x="735" y="-111.8" font-family="Times New Roman,serif" font-size="14.00">value = [0, 4, 472, 40]</text>
<text text-anchor="middle" x="735" y="-96.8" font-family="Times New Roman,serif" font-size="14.00">class = 2</text>
</g>
<!-- 14&#45;&gt;15 -->
<g id="edge15" class="edge"><title>14&#45;&gt;15</title>
<path fill="none" stroke="black" d="M735,-192.884C735,-184.778 735,-175.982 735,-167.472"/>
<polygon fill="black" stroke="black" points="738.5,-167.299 735,-157.299 731.5,-167.299 738.5,-167.299"/>
</g>
<!-- 18 -->
<g id="node19" class="node"><title>18</title>
<polygon fill="#d739e5" fill-opacity="0.364706" stroke="black" points="1028.5,-157 895.5,-157 895.5,-89 1028.5,-89 1028.5,-157"/>
<text text-anchor="middle" x="962" y="-141.8" font-family="Times New Roman,serif" font-size="14.00">V17 &lt;= 0.898</text>
<text text-anchor="middle" x="962" y="-126.8" font-family="Times New Roman,serif" font-size="14.00">samples = 67</text>
<text text-anchor="middle" x="962" y="-111.8" font-family="Times New Roman,serif" font-size="14.00">value = [0, 0, 26, 41]</text>
<text text-anchor="middle" x="962" y="-96.8" font-family="Times New Roman,serif" font-size="14.00">class = 3</text>
</g>
<!-- 14&#45;&gt;18 -->
<g id="edge18" class="edge"><title>14&#45;&gt;18</title>
<path fill="none" stroke="black" d="M805.27,-194.425C830.783,-182.961 859.722,-169.958 885.729,-158.272"/>
<polygon fill="black" stroke="black" points="887.479,-161.322 895.166,-154.031 884.61,-154.937 887.479,-161.322"/>
</g>
<!-- 16 -->
<g id="node17" class="node"><title>16</title>
<polygon fill="#399de5" fill-opacity="0.933333" stroke="black" points="733,-53 593,-53 593,-0 733,-0 733,-53"/>
<text text-anchor="middle" x="663" y="-37.8" font-family="Times New Roman,serif" font-size="14.00">samples = 500</text>
<text text-anchor="middle" x="663" y="-22.8" font-family="Times New Roman,serif" font-size="14.00">value = [0, 4, 469, 27]</text>
<text text-anchor="middle" x="663" y="-7.8" font-family="Times New Roman,serif" font-size="14.00">class = 2</text>
</g>
<!-- 15&#45;&gt;16 -->
<g id="edge16" class="edge"><title>15&#45;&gt;16</title>
<path fill="none" stroke="black" d="M709.818,-88.9485C702.987,-79.9834 695.584,-70.2666 688.724,-61.2629"/>
<polygon fill="black" stroke="black" points="691.453,-59.0699 682.609,-53.2367 685.885,-63.3122 691.453,-59.0699"/>
</g>
<!-- 17 -->
<g id="node18" class="node"><title>17</title>
<polygon fill="#d739e5" fill-opacity="0.768627" stroke="black" points="877,-53 751,-53 751,-0 877,-0 877,-53"/>
<text text-anchor="middle" x="814" y="-37.8" font-family="Times New Roman,serif" font-size="14.00">samples = 16</text>
<text text-anchor="middle" x="814" y="-22.8" font-family="Times New Roman,serif" font-size="14.00">value = [0, 0, 3, 13]</text>
<text text-anchor="middle" x="814" y="-7.8" font-family="Times New Roman,serif" font-size="14.00">class = 3</text>
</g>
<!-- 15&#45;&gt;17 -->
<g id="edge17" class="edge"><title>15&#45;&gt;17</title>
<path fill="none" stroke="black" d="M762.63,-88.9485C770.201,-79.892 778.414,-70.0682 786.005,-60.9875"/>
<polygon fill="black" stroke="black" points="788.756,-63.1538 792.485,-53.2367 783.386,-58.6641 788.756,-63.1538"/>
</g>
<!-- 19 -->
<g id="node20" class="node"><title>19</title>
<polygon fill="#399de5" fill-opacity="0.039216" stroke="black" points="1028.5,-53 895.5,-53 895.5,-0 1028.5,-0 1028.5,-53"/>
<text text-anchor="middle" x="962" y="-37.8" font-family="Times New Roman,serif" font-size="14.00">samples = 49</text>
<text text-anchor="middle" x="962" y="-22.8" font-family="Times New Roman,serif" font-size="14.00">value = [0, 0, 25, 24]</text>
<text text-anchor="middle" x="962" y="-7.8" font-family="Times New Roman,serif" font-size="14.00">class = 2</text>
</g>
<!-- 18&#45;&gt;19 -->
<g id="edge19" class="edge"><title>18&#45;&gt;19</title>
<path fill="none" stroke="black" d="M962,-88.9485C962,-80.7153 962,-71.848 962,-63.4814"/>
<polygon fill="black" stroke="black" points="965.5,-63.2367 962,-53.2367 958.5,-63.2367 965.5,-63.2367"/>
</g>
<!-- 20 -->
<g id="node21" class="node"><title>20</title>
<polygon fill="#d739e5" fill-opacity="0.941176" stroke="black" points="1173,-53 1047,-53 1047,-0 1173,-0 1173,-53"/>
<text text-anchor="middle" x="1110" y="-37.8" font-family="Times New Roman,serif" font-size="14.00">samples = 18</text>
<text text-anchor="middle" x="1110" y="-22.8" font-family="Times New Roman,serif" font-size="14.00">value = [0, 0, 1, 17]</text>
<text text-anchor="middle" x="1110" y="-7.8" font-family="Times New Roman,serif" font-size="14.00">class = 3</text>
</g>
<!-- 18&#45;&gt;20 -->
<g id="edge20" class="edge"><title>18&#45;&gt;20</title>
<path fill="none" stroke="black" d="M1013.76,-88.9485C1029.09,-79.1601 1045.83,-68.4756 1060.98,-58.8015"/>
<polygon fill="black" stroke="black" points="1063.15,-61.5683 1069.69,-53.2367 1059.38,-55.6685 1063.15,-61.5683"/>
</g>
</g>
</svg>
